<?xml version="1.0" encoding="UTF-8"?>
<svg version="1.1" xmlns="http://www.w3.org/2000/svg" width="512" height="512">
<path d="M0 0 C159.06 0 318.12 0 482 0 C496.28028173 35.70070434 500.23919774 70.28370306 490.6875 107.875 C490.4232019 108.92445801 490.4232019 108.92445801 490.15356445 109.99511719 C488.06215296 117.65569396 484.99946596 124.5013351 482 132 C322.94 132 163.88 132 0 132 C-8.13663079 111.0772351 -8.13663079 111.0772351 -9.8125 103.375 C-10.01061279 102.49440918 -10.20872559 101.61381836 -10.4128418 100.70654297 C-17.63197915 67.6215817 -15.33625402 30.67250805 0 0 Z M291.671875 35.39453125 C282.76911278 46.1273057 278.8250631 56.99551017 280 71 C281.586653 82.00560221 286.6377357 91.73131561 294.79296875 99.37109375 C304.23878893 106.34261059 316.10786244 111.33525755 328 110 C341.10015043 107.70298732 351.84832711 102.0710902 360.015625 91.35546875 C365.44514281 83.19978548 368.25940792 76.06051231 368.49609375 66.26171875 C367.79226412 63.05292067 366.58829311 62.010292 364 60 C361.3673606 59.60157085 359.15987832 59.43784305 356.53125 59.46875 C355.813927 59.4649231 355.096604 59.46109619 354.35754395 59.45715332 C352.84463086 59.45443773 351.33167055 59.46177445 349.81884766 59.47851562 C347.50707024 59.49993449 345.19839987 59.47870649 342.88671875 59.453125 C341.41405566 59.45576834 339.9413945 59.46089347 338.46875 59.46875 C337.78010864 59.46065308 337.09146729 59.45255615 336.38195801 59.44421387 C333.00638294 59.50994864 331.24995156 59.8112047 328.52539062 61.86914062 C326.7242751 63.9198799 326.7242751 63.9198799 327.125 66.625 C327.86467913 69.14405125 327.86467913 69.14405125 330 71 C332.71615864 71.37207354 332.71615864 71.37207354 335.8828125 71.4140625 C337.04941406 71.45273437 338.21601563 71.49140625 339.41796875 71.53125 C341.25294922 71.57765625 341.25294922 71.57765625 343.125 71.625 C344.35605469 71.66367187 345.58710938 71.70234375 346.85546875 71.7421875 C349.90349376 71.8366999 352.95150862 71.92225494 356 72 C355.38493107 73.75426716 354.76399583 75.50647819 354.140625 77.2578125 C353.79547852 78.23379395 353.45033203 79.20977539 353.09472656 80.21533203 C350.22787139 87.50778299 345.93100649 91.48626908 339 95 C329.61558892 99.08017873 319.19785151 98.6685912 309.703125 95.1484375 C301.21277115 91.22244681 296.12665702 84.26600785 292.6875 75.75 C290.64600586 64.61457742 292.15139858 54.88131582 298.125 45.1875 C302.65398803 39.35449993 310.02458426 35.91516452 317 34 C325.00873971 33.26146951 332.14428602 33.84811779 339.6953125 36.63671875 C342.0837048 37.25004629 342.0837048 37.25004629 344.2890625 35.78125 C346.33695586 34.02606848 346.33695586 34.02606848 346.25 30.8125 C346.1675 29.884375 346.085 28.95625 346 28 C344.41925436 27.18247697 342.83528777 26.37118003 341.25 25.5625 C340.36828125 25.11003906 339.4865625 24.65757812 338.578125 24.19140625 C323.03754507 17.00977462 303.0569366 23.68472796 291.671875 35.39453125 Z M115.27426147 24.02844238 C113.32983026 27.03689727 113.582701 30.07750827 113.61181641 33.54492188 C113.60655945 34.31107315 113.60130249 35.07722443 113.59588623 35.86659241 C113.582675 38.40085191 113.59142801 40.93448404 113.6015625 43.46875 C113.59954208 45.22847616 113.59663091 46.98820151 113.59286499 48.7479248 C113.58844013 52.43668588 113.59487786 56.12522908 113.60888672 59.81396484 C113.62597877 64.54551281 113.61613845 69.2765503 113.59816933 74.00807953 C113.58733583 77.64202734 113.59077581 81.27585386 113.5985527 84.9098053 C113.60055592 86.65454671 113.59809119 88.39929909 113.59111404 90.14402771 C113.5835066 92.58134185 113.59509317 95.01782591 113.61181641 97.45507812 C113.60574371 98.17828751 113.59967102 98.90149689 113.59341431 99.6466217 C113.63014224 102.53166608 113.67557766 104.52456349 115.32809448 106.94630432 C118.0938544 108.68938684 120.74578906 108.40873537 123.96875 108.43359375 C124.64546753 108.4388356 125.32218506 108.44407745 126.01940918 108.44947815 C127.44830962 108.45589358 128.87726291 108.45456744 130.30615234 108.44604492 C132.49281708 108.43752798 134.67687426 108.46630633 136.86328125 108.49804688 C138.25260338 108.49965887 139.64193014 108.49908138 141.03125 108.49609375 C142.29517578 108.49794678 143.55910156 108.4997998 144.86132812 108.50170898 C148.06148089 108.29611186 148.06148089 108.29611186 149.94335938 106.13305664 C151.21329171 104.003808 151.21329171 104.003808 150.875 101.375 C150.1432514 98.67012227 150.1432514 98.67012227 147 97 C144.57954562 96.72456155 144.57954562 96.72456155 141.89453125 96.8046875 C140.91162109 96.81113281 139.92871094 96.81757813 138.91601562 96.82421875 C137.89185547 96.84097656 136.86769531 96.85773438 135.8125 96.875 C134.25885742 96.88853516 134.25885742 96.88853516 132.67382812 96.90234375 C130.11565315 96.9259214 127.55794252 96.9588297 125 97 C125.00888245 96.13191711 125.01776489 95.26383423 125.0269165 94.3694458 C125.10706476 86.18857027 125.16796554 78.0078266 125.20724869 69.82664871 C125.22812361 65.62059023 125.256439 61.41485615 125.30175781 57.20898438 C125.34521976 53.1500403 125.36913782 49.09140826 125.37950897 45.03224945 C125.3868998 43.48366127 125.40133252 41.93509017 125.42292023 40.38663483 C125.45196048 38.21734216 125.45595599 36.04933859 125.45410156 33.87988281 C125.46298401 32.64522278 125.47186646 31.41056274 125.48101807 30.13848877 C125.23649912 26.93096455 125.23649912 26.93096455 123.22161865 24.57000732 C120.43180121 22.59845662 118.31830689 22.21436379 115.27426147 24.02844238 Z M196 26 C194.7650912 29.97473407 194.86135284 33.97764155 194.83886719 38.11352539 C194.83390228 38.81008743 194.82893738 39.50664948 194.82382202 40.22431946 C194.80928372 42.51544194 194.80241458 44.80649533 194.796875 47.09765625 C194.79111938 48.69518535 194.7853617 50.29271444 194.77960205 51.89024353 C194.7691177 55.23322876 194.76325738 58.57619011 194.75976562 61.91918945 C194.75426748 66.20214214 194.73020082 70.48477908 194.70179367 74.76763248 C194.68317649 78.06445749 194.67796233 81.36120601 194.67642975 84.65807915 C194.67340371 86.23733699 194.66537679 87.8165935 194.65224457 89.39579964 C194.63519283 91.60273575 194.637061 93.80889391 194.64355469 96.01586914 C194.63990906 97.27097794 194.63626343 98.52608673 194.63250732 99.81922913 C195.02258437 103.19547518 195.69736112 104.56371182 198 107 C200.3431213 106.74438677 202.67843403 106.40729228 205 106 C206.3308911 103.33821779 206.11268993 101.31260604 206.09765625 98.3359375 C206.09443359 97.21445312 206.09121094 96.09296875 206.08789062 94.9375 C206.07951172 93.761875 206.07113281 92.58625 206.0625 91.375 C206.05798828 90.19164062 206.05347656 89.00828125 206.04882812 87.7890625 C206.03701467 84.85932493 206.02054258 81.92968728 206 79 C207.18335938 78.98582031 208.36671875 78.97164062 209.5859375 78.95703125 C220.39289903 78.68722876 228.35840895 77.78308807 236.875 70.5625 C242.37986955 63.92427496 245.51542582 58.06364275 245.23828125 49.35546875 C244.36218845 40.69507596 240.46853865 34.74341777 234 29 C226.4166287 24.10184381 219.74082905 23.81759372 211 23.8125 C209.89398438 23.80025391 208.78796875 23.78800781 207.6484375 23.77539062 C206.05902344 23.77249023 206.05902344 23.77249023 204.4375 23.76953125 C203.46683594 23.76542236 202.49617187 23.76131348 201.49609375 23.75708008 C198.74968174 23.82635289 198.74968174 23.82635289 196 26 Z " fill="#000000" transform="translate(15,209)"/>
<path d="M0 0 C2.68205185 -0.3009936 5.13466674 -0.4042577 7.81982422 -0.38095093 C8.63683241 -0.3856309 9.4538406 -0.39031087 10.29560661 -0.39513266 C13.04879596 -0.40715288 15.80149397 -0.39759822 18.5546875 -0.38818359 C20.52215873 -0.39224618 22.48962769 -0.39758629 24.45709229 -0.40411377 C29.81236578 -0.41783041 35.16746657 -0.41247082 40.52274323 -0.40297651 C46.11656677 -0.39540238 51.71037512 -0.40241925 57.30419922 -0.40713501 C66.69957139 -0.41259913 76.09487292 -0.40538374 85.49023438 -0.39111328 C96.36593475 -0.37478554 107.24146642 -0.38007358 118.1171627 -0.3965925 C127.44031408 -0.41018868 136.76341456 -0.41213618 146.08657265 -0.40427649 C151.66123852 -0.39958968 157.23582501 -0.3990027 162.81048584 -0.40888596 C168.05043214 -0.41752621 173.29016009 -0.41158774 178.5300827 -0.39420319 C180.45785916 -0.39022256 182.38565386 -0.39139912 184.31342316 -0.39799118 C186.93592556 -0.40613483 189.5577191 -0.39597284 192.18017578 -0.38095093 C193.33667539 -0.39098918 193.33667539 -0.39098918 194.51653862 -0.40123022 C196.63601685 -0.37752342 196.63601685 -0.37752342 200 0 C202.48097921 3.72146881 202.25888566 5.63942595 202.2746582 10.0859375 C202.2823246 11.16201263 202.2823246 11.16201263 202.29014587 12.25982666 C202.30404851 14.63163591 202.30308484 17.00315485 202.30078125 19.375 C202.30466742 21.0226248 202.30900193 22.6702486 202.31376648 24.31787109 C202.32122983 27.7711919 202.32093631 31.22441046 202.31567383 34.67773438 C202.30987476 39.10659736 202.32681996 43.53504276 202.3500185 47.96383667 C202.3647372 51.36615451 202.36563018 54.7683713 202.36250877 58.17071533 C202.36302279 59.80382109 202.36827551 61.43693238 202.37832069 63.07000732 C202.39063397 65.3516368 202.38392528 67.63244652 202.37231445 69.9140625 C202.37294388 71.2129541 202.3735733 72.5118457 202.3742218 73.85009766 C202 77 202 77 200.68161011 78.92158508 C197.9020146 80.70413697 194.89779178 80.36545577 191.70703125 80.29296875 C190.41514893 80.28547607 189.1232666 80.2779834 187.79223633 80.27026367 C185.32726685 80.22929565 185.32726685 80.22929565 182.8125 80.1875 C177.594375 80.125625 172.37625 80.06375 167 80 C167 92.21 167 104.42 167 117 C175.91 116.9071875 175.91 116.9071875 185 116.8125 C214.02569333 116.72948695 240.67833805 120.11378209 267 133 C267.62036133 133.29600098 268.24072266 133.59200195 268.87988281 133.89697266 C284.43590089 141.38376139 297.66539718 152.01631049 310 164 C310.55397461 164.52843506 311.10794922 165.05687012 311.67871094 165.60131836 C315.95176181 169.7505892 319.60129338 174.14211448 323.125 178.9375 C323.62386719 179.60201172 324.12273437 180.26652344 324.63671875 180.95117188 C334 193.55370839 334 193.55370839 334 198 C179.56 198 25.12 198 -134 198 C-132.98094924 193.92379695 -131.37197378 191.02766071 -129.125 187.5625 C-128.72716309 186.94850342 -128.32932617 186.33450684 -127.91943359 185.7019043 C-123.47609218 179.0008233 -118.41184597 172.93427664 -113 167 C-112.15953125 166.07574219 -111.3190625 165.15148437 -110.453125 164.19921875 C-98.47189978 151.65523901 -84.40390574 141.85873563 -69 134 C-68.39510742 133.68337402 -67.79021484 133.36674805 -67.16699219 133.04052734 C-51.55598986 124.9300907 -34.4192671 120.21309531 -17 118 C-16.26370361 117.90356201 -15.52740723 117.80712402 -14.76879883 117.70776367 C-5.15030191 116.63925026 4.52515646 116.89110955 14.1875 116.9375 C16.01627482 116.94252544 17.84505097 116.9470865 19.67382812 116.95117188 C24.11594612 116.96123558 28.55787505 116.98082536 33 117 C33 104.79 33 92.58 33 80 C22.6036469 80.11863207 22.6036469 80.11863207 12.20776367 80.27026367 C10.26994019 80.28150269 10.26994019 80.28150269 8.29296875 80.29296875 C7.27958435 80.3159906 7.27958435 80.3159906 6.24572754 80.33947754 C1.53346194 80.34210862 1.53346194 80.34210862 -0.68161011 78.92158508 C-2.70233152 75.97633486 -2.37402987 73.45402384 -2.37231445 69.9140625 C-2.37596512 69.19667908 -2.37961578 68.47929565 -2.38337708 67.74017334 C-2.39148484 65.36820827 -2.37787116 62.9969259 -2.36328125 60.625 C-2.36276267 58.97737631 -2.3632803 57.32975199 -2.36479187 55.68212891 C-2.36470214 52.22874721 -2.35427061 48.77559891 -2.33618164 45.32226562 C-2.31349436 40.8934652 -2.31295023 36.46500587 -2.31969929 32.03616333 C-2.32303921 28.63383955 -2.31640876 25.23159368 -2.30657005 21.82928467 C-2.30271815 20.19619148 -2.3015698 18.56308963 -2.3031559 16.92999268 C-2.30352636 14.6484727 -2.29091221 12.36739161 -2.2746582 10.0859375 C-2.27005081 8.7870459 -2.26544342 7.4881543 -2.26069641 6.14990234 C-2 3 -2 3 0 0 Z " fill="#000000" transform="translate(156,0)"/>
<path d="M0 0 C154.44 0 308.88 0 468 0 C456.31349727 29.21625682 425.38965197 53.79692525 397.30322266 66.18994141 C390.62095464 69.00655078 383.88111919 71.7062936 377 74 C376.67 95.12 376.34 116.24 376 138 C393.54665123 137.80227478 393.54665123 137.80227478 411.0925293 137.54956055 C413.29474681 137.53495541 415.49697782 137.52221481 417.69921875 137.51171875 C418.83959595 137.48613892 419.97997314 137.46055908 421.15490723 137.4342041 C430.13930061 137.42924966 430.13930061 137.42924966 433.20629883 140.40551758 C436.1121194 144.6086148 436.55325065 147.9430949 436 153 C434.36312815 156.58552881 433.31027417 157.79315055 430 160 C427.11964238 160.25299966 427.11964238 160.25299966 423.5228138 160.25726891 C422.85900776 160.26077498 422.19520173 160.26428105 421.51128036 160.26789337 C419.27112014 160.27724992 417.03121747 160.27227323 414.79104614 160.26742554 C413.17509653 160.27115966 411.55914872 160.27576023 409.94320381 160.28115618 C405.4901974 160.29343102 401.03726587 160.29312046 396.5842464 160.29076743 C391.78660079 160.29036039 386.98897956 160.30138755 382.19134521 160.31088257 C372.7872746 160.32751799 363.38322904 160.33299326 353.97914495 160.33410732 C346.33766439 160.33505658 338.69619213 160.33916071 331.0547142 160.34550858 C309.40545162 160.36312775 287.7562089 160.37234636 266.10693909 160.37084763 C264.35510043 160.37072776 264.35510043 160.37072776 262.56787109 160.37060547 C261.39855816 160.37052371 260.22924523 160.37044195 259.02449857 160.37035771 C240.06817742 160.36954457 221.11193569 160.38868753 202.15563752 160.4168822 C182.7068693 160.44558186 163.25813984 160.45942411 143.80934989 160.45769465 C132.88411792 160.45702975 121.9589692 160.46256582 111.03375626 160.48405075 C101.73260356 160.50222419 92.43157186 160.50664155 83.13040914 160.4930319 C78.3824594 160.48648286 73.63474203 160.48645457 68.88681412 160.5037384 C64.54296988 160.51938899 60.19954379 160.51668819 55.85571025 160.49917014 C54.28169533 160.49608247 52.70764981 160.49979863 51.13367094 160.51089029 C48.99822628 160.52494553 46.86426179 160.51447952 44.72886848 160.49777794 C43.54159035 160.49821267 42.35431221 160.49864741 41.13105595 160.49909532 C37.33914423 159.89465853 35.68440731 158.70250829 33 156 C31.75932034 152.27796101 31.45288676 148.86626692 32 145 C35 139.5 35 139.5 38 138 C39.72606453 137.90938144 41.45564507 137.88245499 43.18408203 137.88647461 C44.28018799 137.88659546 45.37629395 137.88671631 46.50561523 137.88684082 C47.66134033 137.89195679 48.81706543 137.89707275 50.0078125 137.90234375 C51.59710571 137.90385437 51.59710571 137.90385437 53.21850586 137.90539551 C57.1873482 137.91063893 61.15617516 137.92460012 65.125 137.9375 C78.428125 137.9684375 78.428125 137.9684375 92 138 C91.67 116.88 91.34 95.76 91 74 C84.07 71.36 77.14 68.72 70 66 C41.72455923 52.08318149 14.9410586 30.2725418 0 2 C0 1.34 0 0.68 0 0 Z M165 80 C165 99.14 165 118.28 165 138 C210.54 138 256.08 138 303 138 C303 118.86 303 99.72 303 80 C257.46 80 211.92 80 165 80 Z " fill="#000000" transform="translate(22,352)"/>
<path d="M0 0 C2.660625 -0.0825 5.32125 -0.165 8.0625 -0.25 C8.8862915 -0.28641602 9.71008301 -0.32283203 10.55883789 -0.36035156 C16.19282029 -0.44400787 19.37601565 0.7638015 24 4 C27.79846678 9.06462238 28.52182259 13.73812897 28 20 C26.08052706 25.86810299 23.59462791 29.10732307 18 32 C14.84854506 32.45703531 11.80037781 32.38064544 8.625 32.25 C4.355625 32.12625 4.355625 32.12625 0 32 C0 21.44 0 10.88 0 0 Z " fill="#000000" transform="translate(221,244)"/>
</svg>
